<?xml version="1.0" encoding="utf-8"?>

<!-- Uploaded to: SVG Repo, www.svgrepo.com, Generator: SVG Repo Mixer Tools -->
<svg width="800px" height="800px" viewBox="0 -0.72 161.93 161.93" xmlns="http://www.w3.org/2000/svg">

<defs>

<style>.cls-1{fill:#ffffff;}</style>

</defs>

<g id="Layer_2">

<g id="Layer_1-2">

<path d="M144.06,57.58l4.82-2.29c9.77,4.38,13.4,12.45,13,22.21a88.87,88.87,0,0,1-7,31.62,94.83,94.83,0,0,1-15.44,24.59,148.17,148.17,0,0,1-10.73,11.12,52.8,52.8,0,0,1-30.4,14.57c-18.17,2.24-36.21,1.55-52.85-6.79C17.55,138.6,1,116.56,0,84.36c-.3-9.52,1.32-18.78,3-28.09,1-5.92,1.91-11.81,4.37-17.39C16.13,19,30.89,6.21,52.08,1a31.85,31.85,0,0,1,18.59.84A11.15,11.15,0,0,1,74.29,4a3.41,3.41,0,0,1-.63,5.77c-12.92,6.4-19,18.33-25,30.43-2.69,5.46-3.91,11.35-5,17.24a26.09,26.09,0,0,0,2.65,16.66,74,74,0,0,0,25.15,28.74c11.78,7.9,23.92,8.27,36.48,1.59,8-4.26,14.28-10.42,20.16-17.08a125,125,0,0,0,8-10.12A45.68,45.68,0,0,0,144.06,57.58ZM149.3,75.5c-.92,1.52-1.67,2.62-2.3,3.79a83.2,83.2,0,0,1-31.44,33.21c-12.11,7.17-24.78,8.1-37.87,2.67-16.73-6.94-28.94-19-38.86-33.8-5.62-8.4-6.9-17.51-5.24-27.11A82.42,82.42,0,0,1,46.85,21c1.77-2.56,3.49-5.16,5.71-8.45-1.85.12-3-.05-3.93.3C30,19.66,19.39,33.81,14.92,52.22a131.26,131.26,0,0,0-3.84,36.63c.44,10.25,2.68,19.8,8.74,28.25,3,4.14,6.06,8.22,8.87,12.48A36.65,36.65,0,0,0,43.56,142.2c18,9,37,8.89,56.23,5.39a25.29,25.29,0,0,0,4-1.44c9.93-3.73,17.5-10.53,24.59-18.2,13.2-14.25,19.64-31.31,21.77-50.29C150.24,77.21,149.81,76.7,149.3,75.5Z"/>

<path class="cls-1" d="M149.3,75.5c.51,1.2.94,1.71.89,2.16-2.13,19-8.57,36-21.77,50.29-7.09,7.67-14.66,14.47-24.59,18.2a25.29,25.29,0,0,1-4,1.44c-19.24,3.5-38.18,3.57-56.23-5.39a36.65,36.65,0,0,1-14.87-12.62c-2.81-4.26-5.9-8.34-8.87-12.48-6.06-8.45-8.3-18-8.74-28.25a131.26,131.26,0,0,1,3.84-36.63C19.39,33.81,30,19.66,48.63,12.89c.95-.35,2.08-.18,3.93-.3-2.22,3.29-3.94,5.89-5.71,8.45A82.42,82.42,0,0,0,33.59,54.26c-1.66,9.6-.38,18.71,5.24,27.11,9.92,14.82,22.13,26.86,38.86,33.8,13.09,5.43,25.76,4.5,37.87-2.67A83.2,83.2,0,0,0,147,79.29C147.63,78.12,148.38,77,149.3,75.5Z"/>

</g>

</g>

</svg>