<svg width="800" height="800" viewBox="0 0 800 800" fill="none" xmlns="http://www.w3.org/2000/svg">
<path d="M339.154 365.212C350.97 344.854 369.272 336.468 388.762 334.704C443.152 329.786 515.754 411.184 448.294 456.738C373.794 507.044 285.348 440.518 336.318 375.982" stroke="white" stroke-opacity="0.9" stroke-width="32" stroke-linecap="round" stroke-linejoin="round"/>
<path d="M492.094 269.502C508.826 250.678 540.954 211.022 549.5 201.33" stroke="white" stroke-opacity="0.9" stroke-width="32" stroke-linecap="round" stroke-linejoin="round"/>
<path d="M369.025 252.232C371.211 225.276 361.203 176.577 357.523 161.863" stroke="white" stroke-opacity="0.9" stroke-width="32" stroke-linecap="round" stroke-linejoin="round"/>
<path d="M265.509 296.594C243.127 284.118 231.191 258.012 206.359 253.876" stroke="white" stroke-opacity="0.9" stroke-width="32" stroke-linecap="round" stroke-linejoin="round"/>
<path d="M214.582 424.756C196.721 423.658 179.011 424.64 162.004 428.042" stroke="white" stroke-opacity="0.9" stroke-width="32" stroke-linecap="round" stroke-linejoin="round"/>
<path d="M298.379 528.266C281.529 543.396 264.925 560.376 252.375 579.204" stroke="white" stroke-opacity="0.9" stroke-width="32" stroke-linecap="round" stroke-linejoin="round"/>
<path d="M415.035 562.771C424.567 584.887 423.251 612.815 423.251 638.219" stroke="white" stroke-opacity="0.9" stroke-width="32" stroke-linecap="round" stroke-linejoin="round"/>
<path d="M531.691 513.48C541.467 526.06 563.943 554.291 567.839 559.487" stroke="white" stroke-opacity="0.9" stroke-width="32" stroke-linecap="round" stroke-linejoin="round"/>
<path d="M579.34 372.178C592.164 372.794 648.278 343.922 633.56 362.318" stroke="white" stroke-opacity="0.9" stroke-width="32" stroke-linecap="round" stroke-linejoin="round"/>
</svg>
