<svg width="800" height="800" viewBox="0 0 800 800" fill="none" xmlns="http://www.w3.org/2000/svg">
<path d="M209.226 330C124.979 273.034 194.412 184.162 250 274.92" stroke="white" stroke-opacity="0.9" stroke-width="32" stroke-linecap="round" stroke-linejoin="round"/>
<path d="M518 267.596C559.412 201.054 657.562 209.782 596.506 300" stroke="white" stroke-opacity="0.9" stroke-width="32" stroke-linecap="round" stroke-linejoin="round"/>
<path d="M322.305 318C320.723 308.2 325.689 298.728 327.999 290" stroke="white" stroke-opacity="0.9" stroke-width="32" stroke-linecap="round" stroke-linejoin="round"/>
<path d="M388 330C388.818 313.232 389.896 296.422 392 280" stroke="white" stroke-opacity="0.9" stroke-width="32" stroke-linecap="round" stroke-linejoin="round"/>
<path d="M456 318C456 309.322 456 300.658 456 292" stroke="white" stroke-opacity="0.9" stroke-width="32" stroke-linecap="round" stroke-linejoin="round"/>
<path d="M306 446C320.946 441.83 336.772 440.046 352 438" stroke="white" stroke-opacity="0.9" stroke-width="32" stroke-linecap="round" stroke-linejoin="round"/>
<path d="M450 438C465.79 434.852 480.562 435.862 496 438" stroke="white" stroke-opacity="0.9" stroke-width="32" stroke-linecap="round" stroke-linejoin="round"/>
<path d="M376 512.01C443 477.484 434.676 529.204 382.958 521.13" stroke="white" stroke-opacity="0.9" stroke-width="32" stroke-linecap="round" stroke-linejoin="round"/>
<path d="M402 534C398.108 576.612 363.946 580.35 334 567.468" stroke="white" stroke-opacity="0.9" stroke-width="32" stroke-linecap="round" stroke-linejoin="round"/>
<path d="M400.081 534C397.727 590.598 447.161 582.012 473.999 554.814" stroke="white" stroke-opacity="0.9" stroke-width="32" stroke-linecap="round" stroke-linejoin="round"/>
<path d="M222 486C192.653 476.456 161.623 475.93 132 472" stroke="white" stroke-opacity="0.9" stroke-width="32" stroke-linecap="round" stroke-linejoin="round"/>
<path d="M232 534C199.735 541.616 167.487 547.504 136 558" stroke="white" stroke-opacity="0.9" stroke-width="32" stroke-linecap="round" stroke-linejoin="round"/>
<path d="M586 466C609.002 459.92 631.376 451.24 654 444" stroke="white" stroke-opacity="0.9" stroke-width="32" stroke-linecap="round" stroke-linejoin="round"/>
<path d="M594 522C617.714 518.994 644.276 520.054 666 520.858" stroke="white" stroke-opacity="0.9" stroke-width="32" stroke-linecap="round" stroke-linejoin="round"/>
</svg>
